<svg width="302" height="159" viewBox="0 0 302 159" version="1.1" xmlns="http://www.w3.org/2000/svg" xmlns:xlink="http://www.w3.org/1999/xlink">
<title>kansaihack</title>
<desc>Created using Figma</desc>
<g id="Canvas" transform="translate(279 479)">
<clipPath id="clip-0" clip-rule="evenodd">
<path d="M -279 -479L 23 -479L 23 -320L -279 -320L -279 -479Z" fill="#FFFFFF"/>
</clipPath>
<g id="kansaihack" clip-path="url(#clip-0)">
<g id="Kanha saick">
<use xlink:href="#path0_fill" transform="translate(-275 -510)" fill="#333333"/>
<use xlink:href="#path1_fill" transform="translate(-275 -510)" fill="#EB5757"/>
</g>
</g>
</g>
<defs>
<path id="path0_fill" d="M 20.064 108L 7.392 108L 7.392 40.8L 20.064 40.8L 20.064 68.352L 22.848 68.352L 40.608 40.8L 54.912 40.8L 54.912 41.376L 34.176 73.536L 34.176 75.264L 56.064 107.424L 56.064 108L 41.184 108L 22.848 80.448L 20.064 80.448L 20.064 108ZM 97.0853 101.088C 95.8053 104.096 94.0132 106.24 91.7092 107.52C 89.4052 108.736 86.7173 109.344 83.6453 109.344C 80.7653 109.344 78.0453 108.8 75.4853 107.712C 72.9893 106.624 70.7812 105.024 68.8612 102.912C 66.9412 100.8 65.4052 98.24 64.2532 95.232C 63.1652 92.224 62.6213 88.8 62.6213 84.96L 62.6213 83.424C 62.6213 79.648 63.1652 76.256 64.2532 73.248C 65.3412 70.24 66.8133 67.68 68.6693 65.568C 70.5252 63.456 72.6692 61.856 75.1012 60.768C 77.5972 59.616 80.2532 59.04 83.0692 59.04C 86.4612 59.04 89.1813 59.616 91.2293 60.768C 93.3413 61.92 95.0053 63.712 96.2212 66.144L 97.9493 66.144L 97.9493 60.384L 110.045 60.384L 110.045 93.6C 110.045 95.52 110.909 96.48 112.637 96.48L 114.461 96.48L 114.461 108L 106.205 108C 104.029 108 102.237 107.36 100.829 106.08C 99.4853 104.8 98.8132 103.136 98.8132 101.088L 97.0853 101.088ZM 86.3333 97.824C 89.8533 97.824 92.6693 96.672 94.7812 94.368C 96.8932 92 97.9493 88.8 97.9493 84.768L 97.9493 83.616C 97.9493 79.584 96.8932 76.416 94.7812 74.112C 92.6693 71.744 89.8533 70.56 86.3333 70.56C 82.8133 70.56 79.9972 71.744 77.8852 74.112C 75.7733 76.416 74.7173 79.584 74.7173 83.616L 74.7173 84.768C 74.7173 88.8 75.7733 92 77.8852 94.368C 79.9972 96.672 82.8133 97.824 86.3333 97.824ZM 137.147 108L 125.05 108L 125.05 60.384L 137.147 60.384L 137.147 67.488L 138.875 67.488C 139.963 64.8 141.723 62.72 144.155 61.248C 146.587 59.776 149.434 59.04 152.698 59.04C 155.002 59.04 157.146 59.424 159.13 60.192C 161.178 60.896 162.971 62.016 164.507 63.552C 166.043 65.088 167.227 67.04 168.059 69.408C 168.954 71.776 169.403 74.592 169.403 77.856L 169.403 108L 157.306 108L 157.306 80.928C 157.306 77.536 156.475 74.88 154.81 72.96C 153.21 70.976 150.875 69.984 147.803 69.984C 144.219 69.984 141.53 71.2 139.738 73.632C 138.01 76 137.147 79.2 137.147 83.232L 137.147 108ZM 22.656 144.824C 22.656 146.36 23.456 147.48 25.056 148.184C 26.656 148.824 29.568 149.368 33.792 149.816C 38.656 150.328 42.624 151.8 45.696 154.232C 48.768 156.6 50.304 159.928 50.304 164.216L 50.304 164.792C 50.304 169.528 48.576 173.304 45.12 176.12C 41.664 178.936 36.8 180.344 30.528 180.344C 26.816 180.344 23.648 179.864 21.024 178.904C 18.4 177.944 16.224 176.76 14.496 175.352C 12.768 173.88 11.424 172.28 10.464 170.552C 9.568 168.76 8.96 167.032 8.64 165.368L 19.776 161.72C 20.288 163.768 21.344 165.56 22.944 167.096C 24.608 168.632 27.136 169.4 30.528 169.4C 33.536 169.4 35.584 168.952 36.672 168.056C 37.824 167.096 38.4 166.072 38.4 164.984C 38.4 164.344 38.24 163.768 37.92 163.256C 37.664 162.68 37.152 162.168 36.384 161.72C 35.616 161.208 34.56 160.792 33.216 160.472C 31.936 160.152 30.304 159.896 28.32 159.704C 22.944 159.256 18.656 157.88 15.456 155.576C 12.32 153.208 10.752 149.752 10.752 145.208L 10.752 144.632C 10.752 142.264 11.264 140.184 12.288 138.392C 13.312 136.6 14.656 135.096 16.32 133.88C 17.984 132.6 19.904 131.64 22.08 131C 24.256 130.36 26.496 130.04 28.8 130.04C 31.808 130.04 34.4 130.424 36.576 131.192C 38.816 131.896 40.704 132.856 42.24 134.072C 43.776 135.224 45.024 136.536 45.984 138.008C 46.944 139.416 47.68 140.792 48.192 142.136L 37.248 146.552C 36.672 144.824 35.68 143.48 34.272 142.52C 32.864 141.496 31.04 140.984 28.8 140.984C 26.752 140.984 25.216 141.368 24.192 142.136C 23.168 142.84 22.656 143.736 22.656 144.824ZM 97.0853 172.088C 95.8053 175.096 94.0132 177.24 91.7092 178.52C 89.4052 179.736 86.7173 180.344 83.6453 180.344C 80.7653 180.344 78.0453 179.8 75.4853 178.712C 72.9893 177.624 70.7812 176.024 68.8612 173.912C 66.9412 171.8 65.4052 169.24 64.2532 166.232C 63.1652 163.224 62.6213 159.8 62.6213 155.96L 62.6213 154.424C 62.6213 150.648 63.1652 147.256 64.2532 144.248C 65.3412 141.24 66.8133 138.68 68.6693 136.568C 70.5252 134.456 72.6692 132.856 75.1012 131.768C 77.5972 130.616 80.2532 130.04 83.0692 130.04C 86.4612 130.04 89.1813 130.616 91.2293 131.768C 93.3413 132.92 95.0053 134.712 96.2212 137.144L 97.9493 137.144L 97.9493 131.384L 110.045 131.384L 110.045 164.6C 110.045 166.52 110.909 167.48 112.637 167.48L 114.461 167.48L 114.461 179L 106.205 179C 104.029 179 102.237 178.36 100.829 177.08C 99.4853 175.8 98.8132 174.136 98.8132 172.088L 97.0853 172.088ZM 86.3333 168.824C 89.8533 168.824 92.6693 167.672 94.7812 165.368C 96.8932 163 97.9493 159.8 97.9493 155.768L 97.9493 154.616C 97.9493 150.584 96.8932 147.416 94.7812 145.112C 92.6693 142.744 89.8533 141.56 86.3333 141.56C 82.8133 141.56 79.9972 142.744 77.8852 145.112C 75.7733 147.416 74.7173 150.584 74.7173 154.616L 74.7173 155.768C 74.7173 159.8 75.7733 163 77.8852 165.368C 79.9972 167.672 82.8133 168.824 86.3333 168.824ZM 125.915 167.48L 142.042 167.48L 142.042 142.904L 127.067 142.904L 127.067 131.384L 154.138 131.384L 154.138 167.48L 167.963 167.48L 167.963 179L 125.915 179L 125.915 167.48ZM 157.115 117.272C 157.115 118.552 156.858 119.768 156.346 120.92C 155.898 122.008 155.258 122.968 154.427 123.8C 153.595 124.568 152.603 125.208 151.451 125.72C 150.363 126.168 149.211 126.392 147.995 126.392C 146.715 126.392 145.53 126.168 144.442 125.72C 143.355 125.208 142.394 124.568 141.562 123.8C 140.731 122.968 140.059 122.008 139.547 120.92C 139.099 119.768 138.875 118.552 138.875 117.272C 138.875 115.992 139.099 114.808 139.547 113.72C 140.059 112.568 140.731 111.608 141.562 110.84C 142.394 110.008 143.355 109.368 144.442 108.92C 145.53 108.408 146.715 108.152 147.995 108.152C 149.211 108.152 150.363 108.408 151.451 108.92C 152.603 109.368 153.595 110.008 154.427 110.84C 155.258 111.608 155.898 112.568 156.346 113.72C 156.858 114.808 157.115 115.992 157.115 117.272Z"/>
<path id="path1_fill" d="M 196.12 108L 184.024 108L 184.024 40.8L 196.12 40.8L 196.12 68.064L 197.848 68.064C 199.064 65.184 200.856 62.976 203.224 61.44C 205.592 59.84 208.504 59.04 211.96 59.04C 214.328 59.04 216.504 59.424 218.488 60.192C 220.472 60.96 222.2 62.112 223.672 63.648C 225.144 65.184 226.296 67.168 227.128 69.6C 227.96 71.968 228.376 74.784 228.376 78.048L 228.376 108L 216.28 108L 216.28 80.928C 216.28 77.536 215.448 74.88 213.784 72.96C 212.184 70.976 209.848 69.984 206.776 69.984C 203.192 69.984 200.504 71.2 198.712 73.632C 196.984 76 196.12 79.2 196.12 83.232L 196.12 108ZM 273.429 101.088C 272.149 104.096 270.357 106.24 268.053 107.52C 265.749 108.736 263.061 109.344 259.989 109.344C 257.109 109.344 254.389 108.8 251.829 107.712C 249.333 106.624 247.125 105.024 245.205 102.912C 243.285 100.8 241.749 98.24 240.597 95.232C 239.509 92.224 238.965 88.8 238.965 84.96L 238.965 83.424C 238.965 79.648 239.509 76.256 240.597 73.248C 241.685 70.24 243.157 67.68 245.013 65.568C 246.869 63.456 249.013 61.856 251.445 60.768C 253.941 59.616 256.597 59.04 259.413 59.04C 262.805 59.04 265.525 59.616 267.573 60.768C 269.685 61.92 271.349 63.712 272.565 66.144L 274.293 66.144L 274.293 60.384L 286.389 60.384L 286.389 93.6C 286.389 95.52 287.253 96.48 288.981 96.48L 290.805 96.48L 290.805 108L 282.549 108C 280.373 108 278.581 107.36 277.173 106.08C 275.829 104.8 275.157 103.136 275.157 101.088L 273.429 101.088ZM 262.677 97.824C 266.197 97.824 269.013 96.672 271.125 94.368C 273.237 92 274.293 88.8 274.293 84.768L 274.293 83.616C 274.293 79.584 273.237 76.416 271.125 74.112C 269.013 71.744 266.197 70.56 262.677 70.56C 259.157 70.56 256.341 71.744 254.229 74.112C 252.117 76.416 251.061 79.584 251.061 83.616L 251.061 84.768C 251.061 88.8 252.117 92 254.229 94.368C 256.341 96.672 259.157 97.824 262.677 97.824ZM 230.296 161.528C 229.208 167.16 226.616 171.704 222.52 175.16C 218.488 178.616 213.08 180.344 206.296 180.344C 202.776 180.344 199.48 179.8 196.408 178.712C 193.4 177.624 190.776 176.056 188.536 174.008C 186.296 171.96 184.536 169.432 183.256 166.424C 181.976 163.416 181.336 159.992 181.336 156.152L 181.336 155C 181.336 151.16 181.976 147.704 183.256 144.632C 184.536 141.56 186.296 138.936 188.536 136.76C 190.84 134.584 193.496 132.92 196.504 131.768C 199.576 130.616 202.84 130.04 206.296 130.04C 212.952 130.04 218.328 131.768 222.424 135.224C 226.584 138.68 229.208 143.224 230.296 148.856L 218.392 151.928C 218.008 149.112 216.792 146.68 214.744 144.632C 212.696 142.584 209.816 141.56 206.104 141.56C 204.376 141.56 202.744 141.88 201.208 142.52C 199.672 143.16 198.328 144.088 197.176 145.304C 196.024 146.456 195.096 147.896 194.392 149.624C 193.752 151.288 193.432 153.176 193.432 155.288L 193.432 155.864C 193.432 157.976 193.752 159.864 194.392 161.528C 195.096 163.128 196.024 164.472 197.176 165.56C 198.328 166.648 199.672 167.48 201.208 168.056C 202.744 168.568 204.376 168.824 206.104 168.824C 209.816 168.824 212.632 167.896 214.552 166.04C 216.536 164.184 217.816 161.688 218.392 158.552L 230.296 161.528ZM 258.549 148.856L 260.853 148.856L 273.525 131.384L 286.773 131.384L 286.773 131.96L 271.413 153.752L 271.413 155.48L 288.309 178.424L 288.309 179L 274.485 179L 260.853 160.376L 258.549 160.376L 258.549 179L 246.453 179L 246.453 111.8L 258.549 111.8L 258.549 148.856Z"/>
</defs>
</svg>
